<?xml version="1.0" encoding="utf-8"?>
<!-- Generator: Adobe Illustrator 16.0.0, SVG Export Plug-In . SVG Version: 6.00 Build 0)  -->
<!DOCTYPE svg PUBLIC "-//W3C//DTD SVG 1.1//EN" "http://www.w3.org/Graphics/SVG/1.1/DTD/svg11.dtd">
<svg version="1.1" xmlns="http://www.w3.org/2000/svg" xmlns:xlink="http://www.w3.org/1999/xlink" x="0px" y="0px" width="254px"
	 height="81px" viewBox="161.5 121.5 254 81" enable-background="new 161.5 121.5 254 81" xml:space="preserve">
<g id="Layer_1">
</g>
<g id="Isolation_Mode">
	<g>
		<path fill="#FFFFFF" d="M171.264,192.236l18.921-60.473h16.42l18.92,60.473h-14.469l-3.712-14.377h-18.457l-3.713,14.377H171.264z
			 M193.152,161.631l-1.482,5.561h12.892l-1.39-5.561c-0.867-3.031-1.705-6.248-2.506-9.646c-0.805-3.402-1.609-6.677-2.41-9.832
			h-0.373c-0.743,3.217-1.498,6.507-2.272,9.879C194.836,155.401,194.02,158.6,193.152,161.631z"/>
		<path fill="#FFFFFF" d="M235.724,192.236v-8.256l26.713-40.717h-24.208v-11.5h40.995v8.256l-26.711,40.717h26.985v11.5H235.724z"
			/>
		<path fill="#FFFFFF" d="M289.424,192.236l18.922-60.473h16.42l18.92,60.473h-14.469l-3.713-14.377h-18.455l-3.713,14.377H289.424z
			 M311.314,161.631l-1.482,5.561h12.891l-1.391-5.561c-0.867-3.031-1.701-6.248-2.504-9.646c-0.807-3.402-1.611-6.677-2.412-9.832
			h-0.371c-0.744,3.217-1.498,6.507-2.271,9.879C312.998,155.401,312.18,158.6,311.314,161.631z"/>
		<path fill="#FFFFFF" d="M357.689,192.236v-60.473h21.797c3.213,0,6.23,0.309,9.043,0.929c2.814,0.62,5.271,1.652,7.375,3.104
			c2.102,1.456,3.77,3.387,5.008,5.799c1.234,2.411,1.854,5.411,1.854,8.996c0,4.452-0.971,8.117-2.918,10.992
			c-1.951,2.877-4.564,5.023-7.84,6.443l13.729,24.209H390.43l-11.594-21.797h-7.514v21.797H357.689L357.689,192.236z
			 M371.324,159.592h7.049c3.586,0,6.324-0.759,8.209-2.272c1.885-1.517,2.83-3.758,2.83-6.728c0-2.965-0.945-5.036-2.83-6.212
			c-1.885-1.173-4.621-1.763-8.209-1.763h-7.049V159.592z"/>
	</g>
</g>
</svg>
