<?xml version="1.0" encoding="utf-8"?>
<!-- Generator: Adobe Illustrator 16.0.0, SVG Export Plug-In . SVG Version: 6.00 Build 0)  -->
<!DOCTYPE svg PUBLIC "-//W3C//DTD SVG 1.1//EN" "http://www.w3.org/Graphics/SVG/1.1/DTD/svg11.dtd">
<svg version="1.1" id="Layer_1" xmlns="http://www.w3.org/2000/svg" xmlns:xlink="http://www.w3.org/1999/xlink" x="0px" y="0px"
	 width="580px" height="320px" viewBox="0 0 580 320" enable-background="new 0 0 580 320" xml:space="preserve"  fill="#ffffff">
<g>
	<path d="M9.247,92.92l18.92-60.473h16.421l18.92,60.473H49.04l-3.712-14.376H26.871L23.159,92.92H9.247z M35.124,29.85l-6.12-6.863
		L44.862,10l7.234,8.814L35.124,29.85z M31.137,62.314l-1.482,5.562h12.891l-1.391-5.562c-0.867-3.031-1.703-6.248-2.505-9.646
		c-0.804-3.403-1.609-6.677-2.411-9.832h-0.372c-0.742,3.217-1.497,6.507-2.271,9.879C32.821,56.085,32.004,59.283,31.137,62.314z"
		/>
	<path d="M77.514,92.92V32.447h13.633V81.42h23.929v11.5H77.514z"/>
	<path d="M136.132,92.92l-18.273-60.473h14.47l7.234,28.195c0.929,3.34,1.745,6.571,2.458,9.691
		c0.712,3.125,1.532,6.356,2.458,9.693h0.371c0.867-3.337,1.668-6.568,2.412-9.693c0.743-3.12,1.544-6.352,2.411-9.691l7.142-28.195
		h13.911L152.549,92.92H136.132z"/>
	<path d="M175.271,92.92l18.92-60.473h16.419l18.922,60.473h-14.47l-3.712-14.376h-18.456l-3.712,14.376H175.271z M197.16,62.314
		l-1.482,5.562h12.89l-1.391-5.562c-0.865-3.031-1.702-6.248-2.503-9.646c-0.806-3.403-1.61-6.677-2.411-9.832h-0.372
		c-0.743,3.217-1.499,6.507-2.272,9.879C198.844,56.085,198.027,59.283,197.16,62.314z"/>
	<path d="M243.536,92.92V32.447h21.797c3.212,0,6.229,0.309,9.042,0.929c2.814,0.62,5.272,1.652,7.374,3.104
		c2.103,1.456,3.771,3.387,5.009,5.799c1.234,2.411,1.854,5.411,1.854,8.996c0,4.452-0.972,8.117-2.918,10.992
		c-1.951,2.877-4.564,5.024-7.839,6.445l13.726,24.208h-15.306l-11.593-21.797h-7.514V92.92H243.536z M257.169,60.275h7.049
		c3.589,0,6.325-0.759,8.211-2.273c1.885-1.516,2.828-3.757,2.828-6.727c0-2.965-0.943-5.036-2.828-6.212
		c-1.886-1.173-4.622-1.762-8.211-1.762h-7.049V60.275z"/>
	<path d="M332.391,94.035c-4.08,0-7.807-0.728-11.179-2.183c-3.367-1.452-6.259-3.538-8.67-6.259
		c-2.413-2.722-4.282-6.026-5.613-9.924c-1.327-3.895-1.994-8.314-1.994-13.261c0-4.948,0.667-9.353,1.994-13.22
		c1.331-3.863,3.2-7.11,5.613-9.738c2.411-2.628,5.303-4.638,8.67-6.026c3.372-1.395,7.099-2.087,11.179-2.087
		c4.081,0,7.805,0.693,11.175,2.087c3.372,1.389,6.264,3.417,8.675,6.073c2.411,2.659,4.282,5.922,5.609,9.785
		c1.331,3.867,1.993,8.241,1.993,13.126c0,4.947-0.662,9.366-1.993,13.261c-1.327,3.898-3.198,7.203-5.609,9.924
		s-5.303,4.808-8.675,6.259C340.195,93.307,336.472,94.035,332.391,94.035z M332.391,82.253c4.143,0,7.421-1.777,9.832-5.331
		c2.412-3.558,3.615-8.396,3.615-14.515c0-6.063-1.203-10.793-3.615-14.191c-2.411-3.403-5.689-5.102-9.832-5.102
		c-4.146,0-7.42,1.699-9.832,5.102c-2.411,3.398-3.618,8.128-3.618,14.191c0,6.119,1.207,10.957,3.618,14.515
		C324.971,80.477,328.245,82.253,332.391,82.253z"/>
	<path d="M16.946,195.644v-60.473h20.774c3.342,0,6.46,0.325,9.372,0.976c2.902,0.646,5.438,1.73,7.602,3.243
		c2.163,1.518,3.883,3.526,5.148,6.031s1.9,5.583,1.9,9.229c0,3.526-0.635,6.584-1.9,9.182s-2.985,4.73-5.148,6.401
		c-2.164,1.668-4.667,2.908-7.514,3.709c-2.84,0.806-5.871,1.207-9.088,1.207H30.58v20.496H16.946z M30.58,164.295h6.681
		c7.42,0,11.129-3.212,11.129-9.646c0-3.155-0.992-5.38-2.97-6.678c-1.978-1.299-4.823-1.947-8.531-1.947H30.58V164.295z"/>
	<path d="M79.646,195.644v-60.473h37.841v11.5H93.279v12.149h20.593v11.411H93.279v13.912h25.137v11.5H79.646z M98.288,132.574
		l-6.12-6.863l15.858-12.987l7.234,8.814L98.288,132.574z"/>
	<path d="M137.89,195.644v-60.473h21.797c3.213,0,6.229,0.309,9.043,0.929c2.813,0.62,5.271,1.652,7.374,3.104
		c2.102,1.456,3.769,3.387,5.008,5.799c1.235,2.411,1.854,5.411,1.854,8.996c0,4.452-0.971,8.117-2.919,10.992
		c-1.95,2.877-4.563,5.024-7.839,6.445l13.728,24.208h-15.307l-11.593-21.797h-7.513v21.797H137.89z M151.523,162.999h7.049
		c3.587,0,6.325-0.759,8.21-2.273c1.884-1.516,2.829-3.757,2.829-6.727c0-2.965-0.945-5.036-2.829-6.212
		c-1.885-1.173-4.623-1.762-8.21-1.762h-7.049V162.999z"/>
	<path d="M202.164,195.644v-60.473h37.842v11.5h-24.208v12.149h20.593v11.411h-20.593v13.912h25.138v11.5H202.164z"/>
	<path d="M256.612,195.644v-8.256l26.712-40.717h-24.208v-11.5h40.996v8.256l-26.713,40.717h26.987v11.5H256.612z"/>
	<path d="M336.281,195.644l18.921-60.473h16.42l18.92,60.473h-14.469l-3.712-14.376h-18.457l-3.712,14.376H336.281z M358.17,165.038
		l-1.482,5.562h12.891l-1.39-5.562c-0.867-3.031-1.704-6.248-2.505-9.646c-0.805-3.403-1.61-6.677-2.411-9.832H362.9
		c-0.743,3.217-1.497,6.507-2.272,9.879C359.854,158.809,359.037,162.007,358.17,165.038z"/>
	<path d="M400.741,195.644v-8.256l26.713-40.717h-24.208v-11.5h40.995v8.256l-26.711,40.717h26.986v11.5H400.741z"/>
	<path d="M454.441,195.644l18.921-60.473h16.42l18.921,60.473h-14.47l-3.712-14.376h-18.455l-3.714,14.376H454.441z
		 M476.332,165.038l-1.482,5.562h12.889l-1.39-5.562c-0.867-3.031-1.702-6.248-2.504-9.646c-0.806-3.403-1.611-6.677-2.412-9.832
		h-0.371c-0.744,3.217-1.498,6.507-2.271,9.879C478.015,158.809,477.197,162.007,476.332,165.038z"/>
	<path d="M522.707,195.644v-60.473h21.797c3.213,0,6.229,0.309,9.043,0.929c2.813,0.62,5.271,1.652,7.374,3.104
		c2.102,1.456,3.769,3.387,5.008,5.799c1.235,2.411,1.854,5.411,1.854,8.996c0,4.452-0.971,8.117-2.919,10.992
		c-1.95,2.877-4.563,5.024-7.839,6.445l13.728,24.208h-15.307l-11.593-21.797h-7.513v21.797H522.707z M536.341,162.999h7.049
		c3.587,0,6.325-0.759,8.21-2.273c1.884-1.516,2.829-3.757,2.829-6.727c0-2.965-0.945-5.036-2.829-6.212
		c-1.885-1.173-4.623-1.762-8.21-1.762h-7.049V162.999z"/>
	<path d="M10.4,298.368l17.3-49.135h3.429l17.299,49.135h-3.58l-5.741-16.849H19.647l-5.816,16.849H10.4z M23.821,269.437
		l-3.132,9.174h17.449l-3.131-9.174c-0.994-2.93-1.939-5.739-2.834-8.423c-0.894-2.685-1.766-5.543-2.612-8.577h-0.299
		c-0.844,3.034-1.714,5.892-2.608,8.577C25.761,263.698,24.815,266.507,23.821,269.437z"/>
	<path d="M62.219,298.368v-49.135h14.095c2.435,0,4.648,0.236,6.635,0.708c1.989,0.473,3.681,1.232,5.069,2.276
		c1.395,1.042,2.475,2.385,3.245,4.025c0.771,1.642,1.157,3.627,1.157,5.965c0,3.926-1.134,7.006-3.396,9.245
		c-2.261,2.237-5.329,3.606-9.208,4.103l13.571,22.813h-3.952l-13.348-22.589H65.649v22.589H62.219z M65.649,272.945h9.77
		c4.374,0,7.715-0.883,10.029-2.648c2.311-1.765,3.465-4.463,3.465-8.09c0-3.677-1.169-6.274-3.504-7.792
		c-2.338-1.518-5.666-2.276-9.99-2.276h-9.77V272.945z"/>
	<path d="M140.209,310c-2.086,0-3.987-0.275-5.701-0.82c-1.716-0.546-3.26-1.305-4.626-2.272c-1.367-0.973-2.56-2.114-3.577-3.434
		c-1.021-1.317-1.827-2.745-2.423-4.285c-2.687-0.252-5.145-1.03-7.382-2.35c-2.238-1.317-4.166-3.082-5.778-5.292
		c-1.619-2.213-2.873-4.834-3.768-7.869c-0.894-3.031-1.344-6.387-1.344-10.063c0-3.879,0.5-7.371,1.494-10.475
		c0.992-3.108,2.385-5.767,4.174-7.978c1.793-2.213,3.929-3.902,6.414-5.071c2.484-1.169,5.194-1.753,8.124-1.753
		c2.985,0,5.718,0.584,8.203,1.753c2.484,1.169,4.625,2.858,6.413,5.071c1.789,2.21,3.182,4.869,4.177,7.978
		c0.991,3.104,1.491,6.596,1.491,10.475c0,3.677-0.45,7.033-1.344,10.063c-0.895,3.035-2.151,5.656-3.766,7.869
		c-1.614,2.21-3.554,3.976-5.814,5.292c-2.265,1.32-4.761,2.098-7.494,2.35c1.142,2.484,2.795,4.374,4.959,5.666
		c2.163,1.293,4.784,1.939,7.864,1.939c1.143,0,2.1-0.066,2.873-0.189c0.771-0.125,1.479-0.259,2.125-0.407l0.743,2.908
		c-0.646,0.196-1.502,0.394-2.569,0.596C142.605,309.899,141.451,310,140.209,310z M125.816,296.355
		c2.486,0,4.751-0.545,6.785-1.641c2.041-1.091,3.79-2.621,5.258-4.583c1.466-1.966,2.597-4.351,3.394-7.16
		c0.794-2.807,1.192-5.927,1.192-9.356c0-3.379-0.398-6.438-1.192-9.17c-0.797-2.733-1.928-5.06-3.394-6.971
		c-1.468-1.916-3.217-3.396-5.258-4.437c-2.034-1.044-4.299-1.567-6.785-1.567c-2.484,0-4.756,0.523-6.82,1.567
		c-2.063,1.042-3.815,2.521-5.256,4.437c-1.444,1.912-2.563,4.238-3.355,6.971c-0.794,2.732-1.192,5.791-1.192,9.17
		c0,3.429,0.398,6.549,1.192,9.356c0.792,2.81,1.911,5.194,3.355,7.16c1.44,1.963,3.193,3.492,5.256,4.583
		C121.061,295.81,123.332,296.355,125.816,296.355z"/>
	<path d="M179.652,299.263c-2.086,0-4.126-0.311-6.115-0.933c-1.986-0.62-3.752-1.688-5.293-3.205
		c-1.539-1.513-2.771-3.542-3.691-6.078c-0.921-2.536-1.378-5.713-1.378-9.541v-30.274h3.429v29.897c0,3.283,0.36,6.004,1.08,8.168
		c0.721,2.159,1.68,3.901,2.872,5.218c1.192,1.315,2.571,2.249,4.139,2.795c1.563,0.549,3.217,0.82,4.958,0.82
		c1.789,0,3.491-0.271,5.105-0.82c1.614-0.546,3.03-1.479,4.251-2.795c1.219-1.317,2.201-3.059,2.945-5.218
		c0.747-2.164,1.118-4.885,1.118-8.168v-29.897h3.205v30.274c0,3.828-0.472,7.005-1.417,9.541c-0.944,2.536-2.187,4.564-3.728,6.078
		c-1.54,1.518-3.305,2.585-5.291,3.205C183.853,298.952,181.788,299.263,179.652,299.263z"/>
	<path d="M216.557,298.368v-49.135h3.429v49.135H216.557z"/>
	<path d="M251.007,298.368v-46.151h-15.658v-2.984h34.745v2.984h-15.656v46.151H251.007z"/>
	<path d="M285.449,298.368v-49.135h26.918v2.984h-23.488v18.564h19.688v2.981h-19.688v21.627h24.235v2.979H285.449z"/>
	<path d="M347.263,299.263c-3.035,0-5.818-0.596-8.354-1.789c-2.531-1.192-4.707-2.896-6.521-5.109
		c-1.816-2.21-3.222-4.893-4.212-8.051c-0.994-3.155-1.494-6.697-1.494-10.626c0-3.875,0.512-7.381,1.529-10.513
		c1.017-3.132,2.449-5.802,4.288-8.013c1.84-2.213,4.037-3.902,6.601-5.071c2.558-1.169,5.403-1.753,8.534-1.753
		c2.884,0,5.42,0.596,7.606,1.789c2.188,1.197,3.925,2.562,5.218,4.103l-2.013,2.312c-1.343-1.541-2.907-2.771-4.694-3.693
		c-1.793-0.917-3.806-1.378-6.043-1.378c-2.684,0-5.106,0.523-7.27,1.567c-2.159,1.042-4.002,2.521-5.516,4.437
		c-1.518,1.912-2.675,4.238-3.469,6.971c-0.794,2.732-1.192,5.814-1.192,9.243s0.398,6.526,1.192,9.283
		c0.794,2.76,1.939,5.109,3.43,7.049c1.494,1.935,3.294,3.441,5.408,4.509c2.109,1.068,4.485,1.603,7.117,1.603
		c2.536,0,4.796-0.507,6.785-1.529c1.991-1.018,3.879-2.52,5.668-4.509l2.013,2.159c-1.889,2.191-4.002,3.905-6.337,5.149
		C353.2,298.639,350.44,299.263,347.263,299.263z"/>
	<path d="M386.854,298.368v-46.151h-15.658v-2.984h34.745v2.984h-15.658v46.151H386.854z"/>
	<path d="M436.806,299.263c-2.93,0-5.64-0.608-8.124-1.827c-2.485-1.216-4.621-2.946-6.414-5.184
		c-1.789-2.232-3.182-4.931-4.174-8.086c-0.994-3.158-1.494-6.674-1.494-10.551c0-3.879,0.5-7.371,1.494-10.475
		c0.992-3.108,2.385-5.767,4.174-7.978c1.793-2.213,3.929-3.902,6.414-5.071c2.484-1.169,5.194-1.753,8.124-1.753
		c2.985,0,5.718,0.584,8.203,1.753c2.484,1.169,4.625,2.858,6.413,5.071c1.789,2.21,3.182,4.869,4.177,7.978
		c0.991,3.104,1.491,6.596,1.491,10.475c0,3.877-0.5,7.393-1.491,10.551c-0.995,3.155-2.388,5.854-4.177,8.086
		c-1.788,2.238-3.929,3.968-6.413,5.184C442.523,298.655,439.791,299.263,436.806,299.263z M436.806,296.131
		c2.486,0,4.751-0.535,6.785-1.603c2.041-1.068,3.791-2.585,5.258-4.548c1.466-1.963,2.597-4.324,3.394-7.084
		c0.794-2.76,1.192-5.852,1.192-9.281c0-3.379-0.398-6.438-1.192-9.17c-0.797-2.733-1.928-5.06-3.394-6.971
		c-1.467-1.916-3.217-3.396-5.258-4.437c-2.034-1.044-4.299-1.567-6.785-1.567c-2.484,0-4.756,0.523-6.82,1.567
		c-2.063,1.042-3.815,2.521-5.256,4.437c-1.444,1.912-2.563,4.238-3.355,6.971c-0.794,2.732-1.192,5.791-1.192,9.17
		c0,3.429,0.398,6.521,1.192,9.281c0.792,2.76,1.911,5.121,3.355,7.084c1.44,1.963,3.193,3.48,5.256,4.548
		C432.05,295.596,434.321,296.131,436.806,296.131z"/>
</g>
</svg>
