<?xml version="1.0" encoding="utf-8"?>
<!-- Generator: Adobe Illustrator 16.0.0, SVG Export Plug-In . SVG Version: 6.00 Build 0)  -->
<!DOCTYPE svg PUBLIC "-//W3C//DTD SVG 1.1//EN" "http://www.w3.org/Graphics/SVG/1.1/DTD/svg11.dtd">
<svg version="1.1" id="Layer_1" xmlns="http://www.w3.org/2000/svg" xmlns:xlink="http://www.w3.org/1999/xlink" x="0px" y="0px"
	 width="40px" height="40px" viewBox="0 0 40 40" enable-background="new 0 0 40 40" xml:space="preserve">
<path d="M36.082,1.082H3.917C1.758,1.082,0,2.839,0,5v30.001c0,2.159,1.758,3.917,3.917,3.917h32.165
	c2.16,0,3.918-1.758,3.918-3.917V5C40,2.839,38.242,1.082,36.082,1.082z M2.887,6.924l16.167,14.012
	c0.263,0.228,0.598,0.353,0.946,0.353s0.684-0.125,0.945-0.353L37.113,6.924v28.077c0,0.567-0.463,1.03-1.031,1.03H3.917
	c-0.568,0-1.03-0.463-1.03-1.03V6.924z M20,17.935L3.886,3.969c0.011,0,0.021,0,0.031,0h32.165c0.012,0,0.021,0,0.033,0L20,17.935z"
	/>
</svg>
