<?xml version="1.0" encoding="utf-8"?>
<!-- Generator: Adobe Illustrator 16.0.0, SVG Export Plug-In . SVG Version: 6.00 Build 0)  -->
<!DOCTYPE svg PUBLIC "-//W3C//DTD SVG 1.1//EN" "http://www.w3.org/Graphics/SVG/1.1/DTD/svg11.dtd">
<svg version="1.1" id="Layer_1" xmlns="http://www.w3.org/2000/svg" xmlns:xlink="http://www.w3.org/1999/xlink" x="0px" y="0px"
	 width="40px" height="40px" viewBox="0 0 40 40" enable-background="new 0 0 40 40" xml:space="preserve">
<g>
	<defs>
		<rect id="SVGID_1_" x="0.092" width="39.817" height="40.001"/>
	</defs>
	<clipPath id="SVGID_2_">
		<use xlink:href="#SVGID_1_"  overflow="visible"/>
	</clipPath>
	<path clip-path="url(#SVGID_2_)" d="M28.387,0h-16.59C4.792,0,0.092,4.792,0.092,11.705v16.59c0,3.41,1.106,6.545,3.318,8.571
		c2.12,2.121,5.162,3.135,8.388,3.135h16.405c3.317,0,6.36-1.106,8.387-3.135c2.121-2.119,3.319-5.161,3.319-8.571V11.797
		c0-3.41-1.106-6.359-3.135-8.387C34.747,1.198,31.797,0,28.387,0 M36.313,28.388c0,2.396-0.737,4.516-2.211,5.898
		c-1.383,1.382-3.41,2.119-5.899,2.119H11.797c-2.396,0-4.332-0.737-5.899-2.119c-1.566-1.567-2.212-3.594-2.212-6.083v-16.59
		c0-2.396,0.738-4.517,2.12-5.899c1.383-1.382,3.41-2.12,5.899-2.12h16.589c2.489,0,4.517,0.737,6.084,2.212
		c1.382,1.567,2.119,3.411,2.119,5.899v16.59L36.313,28.388z"/>
	<path clip-path="url(#SVGID_2_)" d="M30.692,6.82c-1.383,0-2.397,1.106-2.397,2.397c0,1.382,1.106,2.396,2.397,2.396
		c1.382,0,2.396-1.106,2.396-2.396C32.996,7.926,31.981,6.82,30.692,6.82"/>
	<path clip-path="url(#SVGID_2_)" d="M19.908,9.678c-5.622,0-10.23,4.515-10.23,10.229c0,5.624,4.516,10.232,10.23,10.232
		c5.715,0,10.415-4.518,10.415-10.232S25.531,9.678,19.908,9.678 M19.908,26.637c-3.687,0-6.636-2.949-6.636-6.636
		s2.949-6.636,6.636-6.636s6.637,2.95,6.637,6.636S23.594,26.637,19.908,26.637"/>
</g>
</svg>
